<svg width="300" height="300" viewBox="0 0 300 300" fill="none" xmlns="http://www.w3.org/2000/svg">
<path d="M152.115 281.25L173.773 300H0V37.5H86.6328C86.6328 32.3242 87.7609 27.4902 90.0169 22.998C92.273 18.5059 95.3751 14.502 99.3232 10.9863C103.271 7.4707 107.84 4.78516 113.029 2.92969C118.218 1.07422 123.858 0.0976563 129.949 0C135.928 0 141.512 0.976563 146.701 2.92969C151.889 4.88281 156.514 7.56836 160.575 10.9863C164.636 14.4043 167.738 18.3594 169.882 22.8516C172.025 27.3437 173.153 32.2266 173.266 37.5H259.898V187.939L238.24 206.689V56.25H216.582V93.75H43.3164V56.25H21.6582V281.25H152.115ZM64.9746 56.25V75H194.924V56.25H151.607V37.5C151.607 34.8633 151.043 32.4219 149.915 30.1758C148.787 27.9297 147.265 25.9766 145.347 24.3164C143.429 22.6563 141.117 21.2891 138.409 20.2148C135.702 19.1406 132.882 18.6523 129.949 18.75C126.904 18.75 124.083 19.2383 121.489 20.2148C118.895 21.1914 116.638 22.5098 114.721 24.1699C112.803 25.8301 111.224 27.832 109.983 30.1758C108.742 32.5195 108.178 34.9609 108.291 37.5V56.25H64.9746ZM300 212.842L205.753 294.58L160.237 255.029L175.465 241.846L205.753 267.92L284.772 199.658L300 212.842Z" fill="black"/>
</svg>
