<svg width="300" height="300" viewBox="0 0 300 300" fill="none" xmlns="http://www.w3.org/2000/svg">
<g clip-path="url(#clip0_266_51)">
<path fill-rule="evenodd" clip-rule="evenodd" d="M246.107 8.1212C245.65 6.27898 244.712 4.59123 243.388 3.23063C242.065 1.87003 240.404 0.885414 238.575 0.37752C236.746 -0.130375 234.815 -0.143318 232.98 0.340015C231.144 0.823349 229.47 1.78561 228.129 3.12835L185.271 45.9855C183.964 47.2953 183.019 48.9212 182.527 50.705C182.035 52.4887 182.013 54.3695 182.464 56.1641L190.179 87.1069L189.879 87.4069L138.643 138.643C135.804 141.689 134.258 145.719 134.332 149.882C134.405 154.046 136.092 158.019 139.037 160.963C141.981 163.908 145.954 165.594 150.117 165.668C154.281 165.741 158.311 164.196 161.357 161.357L212.636 110.143L212.936 109.821L243.857 117.557C245.652 118.008 247.532 117.986 249.316 117.494C251.1 117.002 252.726 116.057 254.036 114.75L296.893 71.8926C298.241 70.5516 299.208 68.8759 299.695 67.0376C300.181 65.1993 300.17 63.2646 299.662 61.4321C299.153 59.5997 298.167 57.9355 296.803 56.6105C295.439 55.2855 293.746 54.3475 291.9 53.8926L255.279 44.7641L246.107 8.1212ZM156.793 16.2641C157.087 20.5148 155.682 24.7086 152.885 27.9232C150.088 31.1379 146.129 33.1103 141.879 33.4069C119.49 34.9585 98.0173 42.9047 80.0122 56.3015C62.007 69.6983 48.2263 87.9823 40.3074 108.981C32.3885 129.98 30.6644 152.811 35.3399 174.761C40.0154 196.71 50.894 216.857 66.6831 232.806C82.4721 248.754 102.508 259.835 124.41 264.731C146.311 269.628 169.158 268.133 190.236 260.426C211.313 252.719 229.735 239.123 243.312 221.254C256.89 203.385 265.052 181.993 266.829 159.621C267.167 155.37 269.18 151.428 272.425 148.661C275.67 145.894 279.881 144.529 284.132 144.868C288.383 145.206 292.326 147.219 295.093 150.464C297.859 153.709 299.224 157.92 298.886 162.171C296.618 190.676 286.215 217.93 268.914 240.697C251.612 263.463 228.139 280.785 201.283 290.603C174.426 300.422 145.316 302.324 117.41 296.085C89.5046 289.846 63.9763 275.727 43.8586 255.406C23.7408 235.086 9.8792 209.417 3.92058 181.45C-2.03804 153.483 0.156801 124.393 10.2444 97.6368C20.3319 70.8805 37.8881 47.5823 60.8272 30.5102C83.7663 13.4381 111.124 3.30968 139.65 1.32835C143.901 1.03395 148.094 2.43964 151.309 5.23639C154.524 8.03314 156.496 12.0134 156.793 16.2641ZM142.393 86.9569C143.163 88.9225 143.538 91.0205 143.497 93.1311C143.456 95.2418 143 97.3236 142.154 99.2578C141.308 101.192 140.09 102.941 138.568 104.404C137.047 105.867 135.252 107.016 133.286 107.785C126.258 110.542 120.028 115.007 115.159 120.775C110.29 126.544 106.935 133.435 105.398 140.826C103.861 148.217 104.19 155.874 106.355 163.106C108.52 170.338 112.453 176.916 117.799 182.246C123.144 187.577 129.734 191.491 136.972 193.635C144.21 195.779 151.869 196.085 159.255 194.526C166.641 192.968 173.523 189.593 179.277 184.707C185.032 179.821 189.478 173.578 192.214 166.543C192.98 164.576 194.125 162.779 195.585 161.254C197.045 159.73 198.791 158.508 200.723 157.658C202.655 156.809 204.735 156.348 206.846 156.302C208.956 156.257 211.054 156.627 213.021 157.393C214.988 158.158 216.785 159.303 218.31 160.763C219.834 162.223 221.056 163.969 221.906 165.901C222.755 167.833 223.216 169.914 223.262 172.024C223.307 174.134 222.937 176.233 222.171 178.2C217.498 190.214 209.904 200.875 200.075 209.217C190.247 217.56 178.495 223.321 165.88 225.981C153.266 228.64 140.188 228.114 127.828 224.45C115.468 220.786 104.216 214.099 95.09 204.994C85.9636 195.889 79.2503 184.653 75.557 172.301C71.8637 159.95 71.3069 146.873 73.9369 134.253C76.5668 121.632 82.3007 109.866 90.6201 100.019C98.9395 90.1707 109.582 82.5515 121.586 77.8498C125.553 76.3013 129.972 76.3906 133.874 78.0982C137.775 79.8058 140.839 82.9919 142.393 86.9569Z" fill="black"/>
</g>
<defs>
<clipPath id="clip0_266_51">
<rect width="300" height="300" fill="white"/>
</clipPath>
</defs>
</svg>
